<?xml version="1.0" encoding="utf-8"?>
<!-- Generator: Adobe Illustrator 16.0.4, SVG Export Plug-In . SVG Version: 6.00 Build 0)  -->
<!DOCTYPE svg PUBLIC "-//W3C//DTD SVG 1.1//EN" "http://www.w3.org/Graphics/SVG/1.1/DTD/svg11.dtd">
<svg version="1.1" id="Layer_1" xmlns="http://www.w3.org/2000/svg" xmlns:xlink="http://www.w3.org/1999/xlink" x="0px" y="0px"
	 width="806px" height="330px" viewBox="-335.546 -99.625 806 330" enable-background="new -335.546 -99.625 806 330"
	 xml:space="preserve">
<g>
	<path fill="#B2B2B2" d="M254.495-70.796L134.35-28.515l18.983,157.411l101.287,55.669l101.811-56.426L375.41-29.264L254.495-70.796
		z"/>
	<path fill="#B52E31" d="M363.427-20.165L254.214-57.409v228.674l91.527-50.652L363.427-20.165z"/>
	<path fill="#E23237" d="M147.831-19.494l16.27,140.78l90.112,49.979V-57.413L147.831-19.494z"/>
	<path fill="#F2F2F2" d="M279.53,56.331L254.413,3.882l-22.109,52.449H279.53z M289.105,78.385h-66.574l-14.895,37.256
		l-27.704,0.511l74.282-165.256l76.874,165.254h-25.678L289.105,78.385z"/>
	<path fill="#B2B2B2" d="M254.214-49.104l0.198,52.986l25.09,52.489h-25.231l-0.057,21.98l34.889,0.033l16.308,37.771l26.51,0.493
		L254.214-49.104z"/>
</g>
<g>
	<path fill="#FFFFFF" d="M-192.956,177.499l1.183,17.862h129.965l0.24-3.611c0.41-6.196,0.821-12.391,1.231-18.588l39.009-11.761
		v-9.764c0-33.773-16.56-64.88-44.724-84.827c3.753-6.185,6.826-12.878,9.182-20.011c5.397-1.356,10.299-4.281,14.196-8.54
		c5.236-5.724,8.024-13.199,7.854-21.088c-0.001-0.048-0.003-0.097-0.006-0.146c0.009-0.231,0.013-0.469,0.007-0.719
		c-0.171-7.851-3.279-15.198-8.759-20.7c-3.054-3.057-6.63-5.343-10.557-6.766c-8.916-39.413-39.037-67.454-73.376-67.454
		c-35.639,0-66.019,29.32-74.013,70.52c-4.386,1.631-8.353,4.333-11.534,7.917c-5.125,5.77-7.805,13.24-7.55,21.046l0.001,0.111
		c-0.008,0.31-0.009,0.617,0.003,0.907c0.517,14.332,10.66,25.905,23.947,28.316c1.975,4.483,5.076,11.195,8.391,17.091
		c-29.491,19.704-47.467,52.171-47.467,86.707v9.86l42.698,12.435C-193.008,176.698-192.982,177.099-192.956,177.499z"/>
	<path fill="none" d="M-195.128,157.759l0.854,0.247c-0.005-0.086-0.012-0.173-0.017-0.259L-195.128,157.759z"/>
	<path fill="#FFEEDE" d="M-63.523,39.4c0.026,0,0.053-0.004,0.076-0.005l-0.005-0.25C-63.476,39.231-63.499,39.315-63.523,39.4z"/>
	<path fill="#FFEEDE" d="M-208.988,116.617c-5.384,10.656-8.53,22.357-9.022,34.479l22.882,6.666l0.837-0.011
		c-0.711-10.752-1.422-21.505-2.135-32.257L-208.988,116.617z"/>
	<path fill="#FFEEDE" d="M-45.552,119.475l-11.754,8.304c-0.453,6.83-0.904,13.66-1.355,20.489c-0.146,2.181-0.29,4.355-0.434,6.538
		l20.048-6.045C-39.448,138.543-41.686,128.669-45.552,119.475z"/>
	<path fill="#FFEEDE" d="M-55.705,25.899c2.011-2.194,3.131-5.049,3.218-8.092c0.006-0.221,0.021-0.441,0.016-0.664
		c-0.067-3.289-1.353-6.347-3.606-8.607c-0.303-0.304-0.623-0.584-0.951-0.85c-1.022-0.826-2.159-1.448-3.362-1.864
		c0.016,0.216,0.025,0.434,0.04,0.651c0.006,0.092,0.012,0.184,0.017,0.276c0.144,2.188,0.237,4.392,0.237,6.624
		c0,5.438-0.44,10.75-1.258,15.897C-59.219,28.76-57.264,27.606-55.705,25.899z"/>
	<path fill="#FFEEDE" d="M-194.85,9.637c0.003-0.078,0.002-0.158,0.005-0.237c0.009-0.226,0.02-0.45,0.029-0.674
		c-1.292,0.404-2.502,1.045-3.585,1.91c-0.516,0.412-1.008,0.863-1.46,1.372c-2.119,2.387-3.221,5.513-3.101,8.802
		c0.001,0.032,0.006,0.062,0.007,0.094c0.257,5.938,4.485,10.726,9.847,11.537c-1.178-6.126-1.82-12.504-1.82-19.066
		C-194.925,12.119-194.894,10.876-194.85,9.637z"/>
	<path fill="#FFEEDE" d="M-127.511-60.5c-32.197,0-58.391,33.138-58.391,73.872c0,22.493,7.998,42.655,20.573,56.216
		c2.479,2.673,5.13,5.094,7.94,7.22c0.021,0.016,0.044,0.032,0.064,0.047c1.146,0.864,2.319,1.673,3.513,2.438
		c-0.387-0.795-0.735-1.61-1.044-2.446c-0.71-1.92-1.204-3.933-1.456-6.016c-0.127-1.052-0.2-2.122-0.2-3.205
		c0-4.75,1.26-9.227,3.475-13.152c0.887-1.575,1.931-3.059,3.107-4.437c3.037-3.555,6.969-6.4,11.474-8.217
		c3.566-1.439,7.489-2.238,11.605-2.238c5.765,0,11.145,1.568,15.704,4.269c3.375,1.998,6.292,4.621,8.576,7.695
		c0.377,0.507,0.744,1.025,1.087,1.558c2.724,4.239,4.294,9.211,4.294,14.523c0,2.204-0.279,4.344-0.787,6.403
		c-0.224,0.899-0.493,1.781-0.805,2.645c-0.165,0.458-0.341,0.909-0.53,1.356c0.564-0.396,1.124-0.804,1.677-1.222
		c0.065-0.047,0.127-0.09,0.191-0.138c2.741-2.09,5.326-4.467,7.751-7.082c12.574-13.56,20.57-33.725,20.57-56.217
		C-69.124-27.363-95.315-60.5-127.511-60.5z M-168.028-1.16l-0.645-9.004l28.852-2.066l0.645,9.004L-168.028-1.16z M-148.289,19.239
		c0,3.238-2.527,5.866-5.638,5.866c-3.112,0-5.637-2.628-5.637-5.866c0-1.272,0.393-2.446,1.054-3.408
		c1.022-1.487,2.692-2.459,4.583-2.459s3.561,0.971,4.584,2.459C-148.68,16.793-148.289,17.966-148.289,19.239z M-118.338,25.7
		v8.123h-18.349V25.7v-0.902h18.349V25.7z M-108.323,14.907c0.897-1.998,2.842-3.384,5.1-3.384c2.261,0,4.203,1.386,5.102,3.384
		c0.337,0.755,0.532,1.593,0.532,2.482c0,3.24-2.521,5.866-5.635,5.866s-5.637-2.627-5.637-5.866
		C-108.858,16.5-108.666,15.663-108.323,14.907z M-87.041-0.116l-28.842-2.212l0.692-9l28.839,2.212L-87.041-0.116z"/>
	<path fill="#FFEEDE" d="M-112.173,53.747c-0.309-0.279-0.632-0.545-0.961-0.808c-3.69-2.938-8.475-4.727-13.718-4.727
		c-4.025,0-7.777,1.068-10.977,2.885c-1.623,0.921-3.1,2.038-4.393,3.32c-2.186,2.167-3.849,4.783-4.786,7.695
		c-0.563,1.75-0.877,3.598-0.877,5.515c0,3.324,0.914,6.453,2.514,9.19c3.556,6.082,10.522,10.225,18.52,10.225
		c8.045,0,15.042-4.196,18.581-10.337c1.559-2.712,2.452-5.799,2.452-9.078c0-2.228-0.427-4.359-1.18-6.354
		C-108.079,58.399-109.862,55.829-112.173,53.747z M-138.523,56.929c0-0.016-0.002-0.029-0.002-0.044h22.014h1.454
		c0,5.44-3.709,10.001-8.732,11.33c-0.96,0.253-1.961,0.402-3,0.402c-0.826,0-1.629-0.087-2.405-0.249
		C-134.507,67.262-138.502,62.564-138.523,56.929z"/>
	<path fill="#B0ACB0" d="M-189.663,109.689c0.02,0.301,0.04,0.603,0.06,0.904c0.2,3.032,0.4,6.063,0.602,9.097
		c0.142,2.135,0.282,4.266,0.424,6.403c0.02,0.315,0.042,0.632,0.062,0.947c0.093,1.415,0.187,2.828,0.28,4.243
		c0.583,8.789,1.164,17.582,1.744,26.371c0.06,0.891,0.118,1.783,0.177,2.674c0.212,3.196,0.423,6.392,0.634,9.587
		c0.146,2.212,0.292,4.425,0.439,6.632l0.704,10.636h115.489c0.448-6.784,0.897-13.57,1.347-20.356
		c0.213-3.206,0.426-6.41,0.639-9.617c0.022-0.354,0.046-0.707,0.068-1.058c0.204-3.097,0.41-6.195,0.615-9.293
		c0.292-4.427,0.585-8.858,0.876-13.286c0.139-2.096,0.28-4.196,0.419-6.295c0.022-0.315,0.042-0.631,0.063-0.946
		c0.096-1.45,0.193-2.898,0.29-4.348c0.25-3.797,0.503-7.591,0.752-11.387c0.021-0.299,0.04-0.605,0.061-0.903L-189.663,109.689
		L-189.663,109.689z M-137.677,127.28c10.942,6.661,21.82,13.426,32.634,20.276c-0.261,0.137-0.522,0.274-0.786,0.411
		c-5.657,2.943-11.304,5.905-16.942,8.884c-4.239,2.239-8.47,4.493-12.693,6.765c-0.243,0.126-0.486,0.255-0.73,0.385
		c-0.357,0.192-0.716,0.383-1.071,0.571c-0.005-0.446-0.011-0.894-0.016-1.34c-0.003-0.304-0.006-0.605-0.009-0.91
		c-0.019-1.763-0.04-3.527-0.058-5.287c-0.104-9.615-0.208-19.229-0.317-28.845C-137.67,127.887-137.672,127.584-137.677,127.28z"/>
	<path fill="#FFFFFF" d="M-83.747,76.862l0.095-0.161l0.685-1.183c-0.344,0.375-0.694,0.746-1.043,1.111
		c-11.752,12.238-26.934,19.64-43.5,19.64c-16.179,0-31.037-7.048-42.671-18.771c-14.354,7.597-26.061,18.448-34.306,31.253
		l7.295,5.154c0.141,2.133,0.282,4.266,0.425,6.4c0.021,0.315,0.042,0.632,0.062,0.947c0.094,1.416,0.188,2.828,0.28,4.242
		c0.712,10.755,1.424,21.506,2.135,32.257c0.005,0.085,0.012,0.172,0.017,0.258c0.211,3.195,0.423,6.39,0.634,9.585
		c0.229,3.454,0.457,6.909,0.686,10.364l1.181,17.862h129.965l0.24-3.61c0.608-9.263,1.227-18.524,1.839-27.786
		c0.186-2.79,0.37-5.583,0.555-8.374c0.026-0.417,0.055-0.831,0.082-1.244c0.146-2.18,0.289-4.357,0.431-6.538
		c0.453-6.829,0.904-13.659,1.355-20.489c0.139-2.095,0.278-4.196,0.418-6.292c0.023-0.316,0.041-0.632,0.063-0.946
		c0.099-1.452,0.194-2.898,0.291-4.351l6.987-4.935C-57.255,97.357-68.915,85.439-83.747,76.862z M-63.979,110.594
		c-0.25,3.796-0.502,7.589-0.751,11.384c-0.098,1.452-0.195,2.9-0.291,4.351c-0.022,0.315-0.041,0.631-0.062,0.946
		c-0.139,2.098-0.278,4.196-0.42,6.294c-0.292,4.429-0.586,8.858-0.877,13.287c-0.204,3.098-0.409,6.195-0.614,9.291
		c-0.022,0.354-0.046,0.708-0.07,1.059c-0.21,3.208-0.424,6.412-0.637,9.618c-0.45,6.785-0.899,13.572-1.347,20.356h-115.489
		l-0.704-10.634c-0.146-2.215-0.292-4.426-0.439-6.634c-0.21-3.195-0.422-6.392-0.634-9.586c-0.059-0.891-0.117-1.783-0.177-2.674
		c-0.581-8.789-1.163-17.582-1.744-26.371c-0.093-1.415-0.187-2.829-0.28-4.243c-0.021-0.316-0.042-0.632-0.062-0.948
		c-0.141-2.135-0.282-4.267-0.424-6.4c-0.201-3.033-0.401-6.065-0.602-9.099c-0.02-0.302-0.04-0.606-0.06-0.904h125.745
		C-63.938,109.99-63.957,110.292-63.979,110.594z"/>
	<path fill="#FFFFFF" d="M-137.666,128.189c0.11,9.614,0.214,19.229,0.317,28.842c0.019,1.764,0.04,3.528,0.058,5.288
		c0.003,0.304,0.006,0.605,0.009,0.91c0.004,0.446,0.01,0.894,0.016,1.34c0.357-0.191,0.716-0.383,1.071-0.569
		c0.244-0.13,0.487-0.259,0.73-0.388c4.224-2.27,8.454-4.521,12.693-6.764c5.638-2.981,11.285-5.943,16.942-8.883
		c0.263-0.135,0.521-0.274,0.786-0.409c-10.811-6.853-21.692-13.615-32.634-20.276C-137.672,127.584-137.67,127.887-137.666,128.189
		z"/>
	<polygon points="-118.338,25.7 -118.338,24.798 -136.687,24.798 -136.687,25.7 -136.687,33.823 -118.338,33.823 	"/>
	<path d="M-153.926,13.372c-1.891,0-3.56,0.971-4.583,2.459c-0.661,0.962-1.053,2.135-1.053,3.408c0,3.238,2.524,5.866,5.636,5.866
		c3.111,0,5.638-2.628,5.638-5.866c0-1.272-0.392-2.446-1.053-3.408C-150.365,14.344-152.035,13.372-153.926,13.372z"/>
	<path d="M-103.224,11.523c-2.258,0-4.202,1.386-5.1,3.384c-0.341,0.755-0.535,1.593-0.535,2.482c0,3.24,2.524,5.866,5.635,5.866
		c3.114,0,5.635-2.627,5.635-5.866c0-0.889-0.195-1.727-0.532-2.482C-99.02,12.91-100.965,11.523-103.224,11.523z"/>
	<rect x="-168.375" y="-11.215" transform="matrix(0.9974 -0.0714 0.0714 0.9974 0.0856 -11.0085)" width="28.922" height="9.027"/>
	
		<rect x="-115.579" y="-10.225" transform="matrix(-0.9971 -0.0765 0.0765 -0.9971 -201.4953 -19.1419)" width="28.93" height="9.026"/>
	<path d="M-129.195,68.368c0.776,0.163,1.579,0.249,2.405,0.249c1.041,0,2.044-0.149,3.001-0.402
		c5.023-1.328,8.731-5.889,8.731-11.33h-1.453h-22.013c0,0.015,0.002,0.029,0.002,0.044
		C-138.502,62.564-134.507,67.262-129.195,68.368z"/>
	<path d="M-194.273,158.009l-0.854-0.247l-22.882-6.666c0.492-12.121,3.638-23.822,9.022-34.479l12.563,8.876
		c-0.093-1.415-0.187-2.829-0.28-4.244c-0.02-0.316-0.042-0.632-0.062-0.948c-0.143-2.135-0.283-4.267-0.425-6.402l-7.295-5.151
		c8.247-12.807,19.953-23.657,34.306-31.253c11.631,11.723,26.492,18.772,42.671,18.772c16.567,0,31.751-7.402,43.5-19.64
		c0.349-0.366,0.696-0.736,1.043-1.111l-0.685,1.183l-0.095,0.161c14.832,8.578,26.493,20.497,34.192,34.392l-6.988,4.936
		c-0.095,1.453-0.194,2.9-0.29,4.351c-0.022,0.313-0.042,0.63-0.065,0.945c-0.137,2.098-0.276,4.199-0.415,6.293l11.754-8.305
		c3.867,9.192,6.103,19.069,6.501,29.287l-20.044,6.045c-0.028,0.415-0.055,0.83-0.083,1.243c-0.185,2.791-0.369,5.582-0.554,8.375
		l29.772-8.976v-3.351c0-33.749-17.985-64.446-48.163-82.383c6.501-8.61,11.528-18.917,14.6-30.312
		c0.023-0.085,0.047-0.17,0.07-0.255l0.005,0.25l0.002,0.095c5.504-0.12,10.616-2.46,14.402-6.596
		c3.728-4.077,5.719-9.417,5.596-15.04c-0.002-0.081-0.016-0.159-0.018-0.241c0.002-0.221,0.022-0.439,0.018-0.661
		c-0.122-5.625-2.338-10.876-6.238-14.791c-3.275-3.28-7.392-5.274-11.846-5.807c-6.402-37.574-33.549-65.881-65.978-65.881
		c-33.286,0-60.996,29.823-66.431,68.875c-4.867,0.575-9.316,2.894-12.666,6.663c-3.669,4.131-5.579,9.503-5.374,15.122
		c0.001,0.034,0.006,0.066,0.009,0.099c0,0.269-0.018,0.534-0.009,0.803c0.415,11.434,9.535,20.463,20.487,20.463
		c0.24,0,0.482-0.007,0.723-0.016l-0.018-0.519c3.22,10.744,8.214,20.434,14.524,28.568c-31.426,17.453-50.836,49.367-50.836,83.929
		v3.387l33.462,9.745C-193.85,164.398-194.063,161.204-194.273,158.009z M-127.511-60.5c32.197,0,58.388,33.138,58.388,73.872
		c0,22.493-7.997,42.657-20.57,56.217c-2.424,2.614-5.011,4.989-7.751,7.081c-0.064,0.048-0.128,0.091-0.192,0.138
		c-0.553,0.418-1.11,0.826-1.677,1.222c0.188-0.446,0.366-0.898,0.53-1.355c0.314-0.864,0.582-1.747,0.805-2.645
		c0.511-2.058,0.787-4.199,0.787-6.403c0-5.312-1.571-10.285-4.292-14.523c-0.342-0.533-0.71-1.05-1.087-1.558
		c-2.286-3.073-5.204-5.696-8.576-7.694c-4.561-2.701-9.939-4.269-15.706-4.269c-4.116,0-8.039,0.797-11.606,2.238
		c-4.504,1.817-8.437,4.661-11.474,8.217c-1.177,1.378-2.221,2.862-3.107,4.437c-2.215,3.924-3.475,8.401-3.475,13.151
		c0,1.084,0.073,2.153,0.2,3.206c0.252,2.083,0.746,4.095,1.456,6.016c0.309,0.833,0.657,1.649,1.043,2.446
		c-1.193-0.766-2.367-1.574-3.513-2.438c-0.021-0.016-0.044-0.032-0.064-0.047c-2.809-2.125-5.461-4.546-7.94-7.22
		c-12.574-13.56-20.572-33.723-20.572-56.216C-185.902-27.363-159.707-60.5-127.511-60.5z M-147.883,67.626
		c0-1.917,0.314-3.766,0.877-5.515c0.937-2.912,2.6-5.528,4.785-7.695c1.293-1.282,2.769-2.398,4.394-3.32
		c3.2-1.817,6.952-2.885,10.977-2.885c5.241,0,10.029,1.791,13.717,4.727c0.329,0.263,0.651,0.528,0.961,0.808
		c2.313,2.083,4.095,4.653,5.178,7.527c0.75,1.995,1.18,4.126,1.18,6.354c0,3.279-0.892,6.365-2.451,9.078
		c-3.536,6.141-10.537,10.337-18.582,10.337c-7.997,0-14.963-4.143-18.52-10.225C-146.97,74.079-147.883,70.951-147.883,67.626z
		 M-60.351,6.472c-0.016-0.217-0.024-0.435-0.04-0.651c1.202,0.417,2.341,1.04,3.363,1.864c0.328,0.266,0.647,0.546,0.95,0.85
		c2.254,2.261,3.537,5.319,3.606,8.607c0.005,0.223-0.009,0.442-0.017,0.664c-0.085,3.043-1.206,5.897-3.217,8.092
		c-1.558,1.707-3.515,2.861-5.651,3.37c0.817-5.148,1.258-10.461,1.258-15.897c0-2.232-0.093-4.437-0.236-6.625
		C-60.34,6.656-60.344,6.564-60.351,6.472z M-202.953,20.902c-0.001-0.032-0.006-0.062-0.007-0.094
		c-0.12-3.289,0.982-6.415,3.101-8.802c0.452-0.509,0.944-0.96,1.46-1.373c1.082-0.865,2.293-1.505,3.585-1.91
		c-0.009,0.225-0.021,0.45-0.029,0.674c-0.003,0.079-0.002,0.159-0.005,0.237c-0.045,1.24-0.076,2.483-0.076,3.735
		c0,6.562,0.643,12.94,1.82,19.066C-198.468,31.628-202.695,26.839-202.953,20.902z"/>
</g>
<text transform="matrix(1 0 0 1 6.7583 87.0405)" fill="#393A3A" font-family="'HelveticaNeue-Bold'" font-size="142.02">+</text>
</svg>
